<svg width="1255" height="224" viewBox="0 0 1255 224" fill="none" xmlns="http://www.w3.org/2000/svg">
<g filter="url(#filter0_d)">
<rect x="35" y="25" width="1185" height="154" fill="white"/>
</g>
<rect x="980" y="70" width="195" height="64" fill="#FF715B"/>
<path d="M1017.74 109V108.19H1018.12C1018.49 108.19 1018.8 108.118 1019.05 107.974C1019.32 107.83 1019.45 107.482 1019.45 106.93V98.146C1019.45 97.63 1019.32 97.306 1019.05 97.174C1018.79 97.03 1018.48 96.958 1018.12 96.958H1017.74V96.148H1023.37C1025.27 96.148 1026.75 96.7 1027.8 97.804C1028.86 98.896 1029.39 100.462 1029.39 102.502C1029.39 103.81 1029.16 104.956 1028.7 105.94C1028.26 106.912 1027.59 107.668 1026.69 108.208C1025.8 108.736 1024.69 109 1023.37 109H1017.74ZM1021.54 108.028H1022.96C1024.34 108.028 1025.37 107.548 1026.06 106.588C1026.75 105.628 1027.1 104.266 1027.1 102.502C1027.1 100.738 1026.75 99.4 1026.06 98.488C1025.37 97.564 1024.35 97.102 1022.98 97.102H1021.54V108.028ZM1033.35 97.606C1033.02 97.606 1032.73 97.516 1032.51 97.336C1032.29 97.156 1032.18 96.856 1032.18 96.436C1032.18 96.004 1032.29 95.704 1032.51 95.536C1032.73 95.356 1033.02 95.266 1033.35 95.266C1033.66 95.266 1033.93 95.356 1034.16 95.536C1034.4 95.704 1034.52 96.004 1034.52 96.436C1034.52 96.856 1034.4 97.156 1034.16 97.336C1033.93 97.516 1033.66 97.606 1033.35 97.606ZM1030.78 109V108.19H1031.01C1031.25 108.19 1031.48 108.166 1031.7 108.118C1031.91 108.058 1032.09 107.944 1032.22 107.776C1032.36 107.608 1032.43 107.35 1032.43 107.002V101.35C1032.43 101.002 1032.36 100.744 1032.22 100.576C1032.09 100.408 1031.91 100.3 1031.7 100.252C1031.48 100.192 1031.25 100.162 1031.01 100.162H1030.92V99.352H1034.41V106.93C1034.41 107.302 1034.48 107.578 1034.61 107.758C1034.74 107.926 1034.92 108.04 1035.13 108.1C1035.36 108.16 1035.6 108.19 1035.84 108.19H1036.07V109H1030.78ZM1040.21 109.18C1039.19 109.18 1038.41 109.012 1037.87 108.676C1037.33 108.328 1037.06 107.842 1037.06 107.218C1037.06 106.87 1037.13 106.606 1037.28 106.426C1037.42 106.246 1037.59 106.12 1037.78 106.048C1037.99 105.976 1038.17 105.94 1038.34 105.94C1038.34 106.612 1038.49 107.17 1038.79 107.614C1039.1 108.046 1039.6 108.262 1040.28 108.262C1040.92 108.262 1041.4 108.124 1041.72 107.848C1042.05 107.56 1042.21 107.188 1042.21 106.732C1042.21 106.444 1042.14 106.204 1042.01 106.012C1041.89 105.82 1041.67 105.634 1041.35 105.454C1041.02 105.274 1040.57 105.064 1040 104.824C1039.37 104.56 1038.85 104.302 1038.43 104.05C1038.02 103.786 1037.72 103.48 1037.51 103.132C1037.31 102.772 1037.21 102.328 1037.21 101.8C1037.21 100.948 1037.52 100.3 1038.16 99.856C1038.81 99.4 1039.66 99.172 1040.72 99.172C1041.65 99.172 1042.35 99.34 1042.8 99.676C1043.26 100.012 1043.49 100.396 1043.49 100.828C1043.49 101.176 1043.37 101.452 1043.13 101.656C1042.89 101.86 1042.53 101.962 1042.05 101.962C1042.05 101.362 1041.92 100.894 1041.65 100.558C1041.4 100.222 1041.01 100.054 1040.48 100.054C1039.93 100.054 1039.52 100.18 1039.24 100.432C1038.98 100.672 1038.84 100.996 1038.84 101.404C1038.84 101.848 1039.01 102.196 1039.35 102.448C1039.7 102.688 1040.3 102.97 1041.15 103.294C1042.05 103.666 1042.72 104.068 1043.16 104.5C1043.62 104.92 1043.85 105.508 1043.85 106.264C1043.85 107.224 1043.52 107.95 1042.86 108.442C1042.2 108.934 1041.32 109.18 1040.21 109.18ZM1049.77 109.18C1048.95 109.18 1048.23 109.018 1047.59 108.694C1046.95 108.358 1046.46 107.83 1046.1 107.11C1045.75 106.378 1045.57 105.418 1045.57 104.23C1045.57 102.946 1045.75 101.932 1046.11 101.188C1046.47 100.444 1046.97 99.922 1047.59 99.622C1048.21 99.31 1048.92 99.154 1049.7 99.154C1050.27 99.154 1050.81 99.226 1051.3 99.37C1051.79 99.514 1052.19 99.724 1052.49 100C1052.79 100.276 1052.94 100.612 1052.94 101.008C1052.94 101.416 1052.8 101.728 1052.52 101.944C1052.25 102.148 1051.78 102.25 1051.14 102.25C1051.14 101.662 1051.04 101.158 1050.85 100.738C1050.66 100.318 1050.28 100.108 1049.71 100.108C1049.28 100.108 1048.9 100.228 1048.58 100.468C1048.27 100.708 1048.03 101.128 1047.86 101.728C1047.69 102.328 1047.61 103.156 1047.61 104.212C1047.61 105.472 1047.81 106.414 1048.2 107.038C1048.6 107.65 1049.25 107.956 1050.16 107.956C1050.74 107.956 1051.24 107.836 1051.66 107.596C1052.09 107.344 1052.41 107.026 1052.61 106.642C1052.84 106.81 1052.95 107.056 1052.95 107.38C1052.95 107.668 1052.83 107.95 1052.59 108.226C1052.37 108.502 1052.02 108.73 1051.55 108.91C1051.08 109.09 1050.49 109.18 1049.77 109.18ZM1058.91 109.18C1057.58 109.18 1056.53 108.766 1055.76 107.938C1054.99 107.11 1054.61 105.85 1054.61 104.158C1054.61 102.466 1054.98 101.212 1055.71 100.396C1056.44 99.568 1057.53 99.154 1058.97 99.154C1060.3 99.154 1061.35 99.568 1062.12 100.396C1062.88 101.212 1063.27 102.466 1063.27 104.158C1063.27 105.85 1062.9 107.11 1062.15 107.938C1061.42 108.766 1060.34 109.18 1058.91 109.18ZM1058.95 108.19C1059.79 108.19 1060.38 107.848 1060.71 107.164C1061.06 106.48 1061.23 105.478 1061.23 104.158C1061.23 102.826 1061.06 101.83 1060.71 101.17C1060.38 100.498 1059.78 100.162 1058.93 100.162C1058.08 100.162 1057.48 100.498 1057.15 101.17C1056.81 101.83 1056.64 102.826 1056.64 104.158C1056.64 105.478 1056.82 106.48 1057.17 107.164C1057.51 107.848 1058.11 108.19 1058.95 108.19ZM1068.54 109L1065.64 101.098C1065.51 100.726 1065.34 100.48 1065.14 100.36C1064.93 100.228 1064.65 100.162 1064.27 100.162V99.352H1069.06V100.162H1068.68C1068.06 100.162 1067.75 100.426 1067.75 100.954C1067.75 101.158 1067.8 101.392 1067.89 101.656L1069.12 105.058C1069.27 105.478 1069.42 105.934 1069.57 106.426C1069.71 106.918 1069.82 107.32 1069.91 107.632C1069.97 107.368 1070.08 107.014 1070.23 106.57C1070.4 106.114 1070.56 105.694 1070.7 105.31L1071.98 101.782C1072.09 101.482 1072.14 101.206 1072.14 100.954C1072.14 100.426 1071.79 100.162 1071.1 100.162H1070.86V99.352H1074.73V100.162H1074.48C1074.16 100.162 1073.91 100.252 1073.74 100.432C1073.57 100.6 1073.38 100.972 1073.17 101.548L1070.39 109H1068.54ZM1080.02 109.18C1078.65 109.18 1077.59 108.748 1076.84 107.884C1076.09 107.02 1075.72 105.808 1075.72 104.248C1075.72 102.556 1076.07 101.284 1076.78 100.432C1077.5 99.58 1078.52 99.154 1079.84 99.154C1081.04 99.154 1081.98 99.52 1082.67 100.252C1083.36 100.972 1083.71 102.046 1083.71 103.474V104.32H1077.75C1077.78 105.604 1078.01 106.54 1078.44 107.128C1078.88 107.704 1079.52 107.992 1080.35 107.992C1080.97 107.992 1081.5 107.86 1081.93 107.596C1082.37 107.332 1082.7 107.026 1082.92 106.678C1083.02 106.726 1083.1 106.81 1083.17 106.93C1083.26 107.05 1083.3 107.194 1083.3 107.362C1083.3 107.626 1083.18 107.902 1082.94 108.19C1082.71 108.466 1082.35 108.7 1081.86 108.892C1081.38 109.084 1080.77 109.18 1080.02 109.18ZM1077.79 103.294H1081.64C1081.64 102.346 1081.5 101.59 1081.23 101.026C1080.95 100.462 1080.48 100.18 1079.82 100.18C1079.2 100.18 1078.71 100.45 1078.37 100.99C1078.03 101.518 1077.84 102.286 1077.79 103.294ZM1085.1 109V108.19H1085.15C1085.56 108.19 1085.9 108.118 1086.18 107.974C1086.47 107.818 1086.61 107.458 1086.61 106.894V101.386C1086.61 100.858 1086.47 100.522 1086.2 100.378C1085.92 100.234 1085.58 100.162 1085.19 100.162H1085.13V99.352H1088.14L1088.48 101.026H1088.57C1088.73 100.666 1088.9 100.348 1089.08 100.072C1089.27 99.784 1089.51 99.562 1089.81 99.406C1090.13 99.238 1090.54 99.154 1091.06 99.154C1091.73 99.154 1092.23 99.274 1092.55 99.514C1092.87 99.754 1093.04 100.09 1093.04 100.522C1093.04 100.942 1092.89 101.284 1092.59 101.548C1092.3 101.8 1091.84 101.926 1091.2 101.926C1091.2 101.434 1091.13 101.074 1090.98 100.846C1090.85 100.606 1090.61 100.486 1090.26 100.486C1089.93 100.486 1089.65 100.612 1089.44 100.864C1089.22 101.116 1089.05 101.434 1088.91 101.818C1088.79 102.202 1088.71 102.598 1088.66 103.006C1088.61 103.414 1088.59 103.774 1088.59 104.086V106.984C1088.59 107.512 1088.73 107.848 1089 107.992C1089.29 108.124 1089.63 108.19 1090.01 108.19H1090.53V109H1085.1ZM1098.62 109V108.19H1099C1099.37 108.19 1099.68 108.118 1099.93 107.974C1100.2 107.83 1100.33 107.482 1100.33 106.93V98.146C1100.33 97.63 1100.2 97.306 1099.93 97.174C1099.67 97.03 1099.36 96.958 1099 96.958H1098.62V96.148H1102.11L1108.54 105.832V98.146C1108.54 97.63 1108.4 97.306 1108.12 97.174C1107.86 97.03 1107.55 96.958 1107.2 96.958H1106.83V96.148H1111.4V96.958H1111.02C1110.66 96.958 1110.35 97.03 1110.08 97.174C1109.82 97.318 1109.69 97.666 1109.69 98.218V109H1108.32L1101.5 98.758V106.93C1101.5 107.482 1101.62 107.83 1101.88 107.974C1102.14 108.118 1102.45 108.19 1102.81 108.19H1103.19V109H1098.62ZM1117.09 109.18C1115.76 109.18 1114.71 108.766 1113.94 107.938C1113.18 107.11 1112.79 105.85 1112.79 104.158C1112.79 102.466 1113.16 101.212 1113.89 100.396C1114.62 99.568 1115.71 99.154 1117.15 99.154C1118.48 99.154 1119.53 99.568 1120.3 100.396C1121.07 101.212 1121.45 102.466 1121.45 104.158C1121.45 105.85 1121.08 107.11 1120.33 107.938C1119.6 108.766 1118.52 109.18 1117.09 109.18ZM1117.13 108.19C1117.97 108.19 1118.56 107.848 1118.89 107.164C1119.24 106.48 1119.42 105.478 1119.42 104.158C1119.42 102.826 1119.24 101.83 1118.89 101.17C1118.56 100.498 1117.96 100.162 1117.11 100.162C1116.26 100.162 1115.67 100.498 1115.33 101.17C1114.99 101.83 1114.83 102.826 1114.83 104.158C1114.83 105.478 1115 106.48 1115.35 107.164C1115.7 107.848 1116.29 108.19 1117.13 108.19ZM1126.08 109L1123.74 101.116C1123.6 100.732 1123.44 100.48 1123.25 100.36C1123.07 100.228 1122.81 100.162 1122.46 100.162H1122.4V99.352H1127.08V100.162H1126.85C1126.49 100.162 1126.22 100.216 1126.04 100.324C1125.86 100.42 1125.77 100.618 1125.77 100.918C1125.77 101.014 1125.78 101.134 1125.81 101.278C1125.84 101.422 1125.88 101.56 1125.91 101.692L1126.71 104.536C1126.83 104.968 1126.94 105.448 1127.05 105.976C1127.17 106.492 1127.25 106.9 1127.3 107.2H1127.35C1127.41 106.9 1127.5 106.534 1127.62 106.102C1127.76 105.658 1127.9 105.214 1128.06 104.77L1129.91 99.424H1131.06L1132.84 104.734C1132.99 105.166 1133.13 105.616 1133.26 106.084C1133.39 106.552 1133.49 106.924 1133.55 107.2H1133.6C1133.7 106.636 1133.91 105.826 1134.23 104.77L1135.11 101.944C1135.16 101.788 1135.2 101.626 1135.22 101.458C1135.26 101.278 1135.27 101.14 1135.27 101.044C1135.27 100.456 1134.88 100.162 1134.09 100.162H1133.96V99.352H1137.88V100.162H1137.65C1137.3 100.162 1137.03 100.252 1136.84 100.432C1136.66 100.6 1136.48 100.978 1136.3 101.566L1133.98 109H1132.39L1130.07 101.908L1127.64 109H1126.08Z" fill="white"/>
<rect x="680" y="133" width="240" height="1" rx="0.5" fill="#F5EBE9"/>
<path d="M915.952 116.362V117.422C915.952 117.74 915.694 118 915.373 118C915.049 118.015 914.774 117.767 914.759 117.442C914.759 117.437 914.759 117.429 914.759 117.423V116.383C913.443 116.341 912.187 115.833 911.208 114.953C911.074 114.813 911 114.631 911 114.439C910.994 114.001 911.33 113.636 911.768 113.605C911.94 113.609 912.107 113.668 912.241 113.776C912.956 114.377 913.826 114.76 914.752 114.883V111.097C912.998 110.623 911.17 110.026 911.17 107.878C911.17 106.126 912.619 104.81 914.75 104.659V103.578C914.753 103.254 915.021 102.996 915.345 103C915.351 103 915.358 103 915.364 103C915.682 103 915.942 103.258 915.942 103.578V104.695C917.034 104.757 918.075 105.176 918.905 105.887C919.04 106.024 919.114 106.208 919.114 106.399C919.11 106.845 918.746 107.205 918.299 107.205C918.16 107.203 918.026 107.161 917.91 107.082C917.336 106.642 916.663 106.35 915.95 106.23V109.563C917.702 110.037 919.577 110.718 919.577 112.953C919.578 114.619 918.538 116.191 915.952 116.362ZM914.759 106.164C913.652 106.249 912.922 106.884 912.922 107.764C912.922 108.644 913.728 108.957 914.759 109.26V106.164ZM915.952 111.455V114.902C917.353 114.731 917.846 113.88 917.846 113.16C917.855 112.166 917.021 111.759 915.952 111.455Z" fill="#FF715B"/>
<path d="M684.59 119.422V117.244C683.738 117.232 683.042 117.112 682.502 116.884C681.962 116.644 681.566 116.338 681.314 115.966C681.062 115.594 680.936 115.192 680.936 114.76C680.936 114.292 681.086 113.95 681.386 113.734C681.686 113.518 682.046 113.41 682.466 113.41C682.514 114.25 682.712 114.94 683.06 115.48C683.408 116.008 683.918 116.302 684.59 116.362V112.258C683.762 111.91 683.114 111.568 682.646 111.232C682.178 110.884 681.848 110.512 681.656 110.116C681.464 109.72 681.368 109.258 681.368 108.73C681.368 107.89 681.662 107.206 682.25 106.678C682.85 106.138 683.63 105.814 684.59 105.706V104.32H685.562V105.688C686.63 105.724 687.404 105.922 687.884 106.282C688.364 106.63 688.604 107.062 688.604 107.578C688.604 107.95 688.454 108.256 688.154 108.496C687.854 108.724 687.41 108.838 686.822 108.838C686.822 108.562 686.78 108.274 686.696 107.974C686.624 107.662 686.498 107.392 686.318 107.164C686.138 106.924 685.886 106.756 685.562 106.66V110.422C685.994 110.626 686.414 110.83 686.822 111.034C687.23 111.226 687.596 111.448 687.92 111.7C688.256 111.94 688.52 112.24 688.712 112.6C688.916 112.96 689.018 113.404 689.018 113.932C689.018 114.844 688.712 115.588 688.1 116.164C687.5 116.74 686.654 117.088 685.562 117.208V119.422H684.59ZM684.59 109.972V106.624C684.194 106.696 683.876 106.876 683.636 107.164C683.396 107.44 683.276 107.788 683.276 108.208C683.276 108.604 683.372 108.94 683.564 109.216C683.768 109.48 684.11 109.732 684.59 109.972ZM685.562 116.308C686.042 116.212 686.414 116.008 686.678 115.696C686.942 115.384 687.074 115 687.074 114.544C687.074 114.136 686.948 113.788 686.696 113.5C686.456 113.212 686.078 112.942 685.562 112.69V116.308ZM694.465 118.18C693.565 118.18 692.851 118.078 692.323 117.874C691.807 117.67 691.435 117.412 691.207 117.1C690.991 116.788 690.883 116.47 690.883 116.146C690.883 115.762 690.997 115.468 691.225 115.264C691.453 115.06 691.777 114.958 692.197 114.958C692.197 115.306 692.263 115.636 692.395 115.948C692.539 116.248 692.761 116.5 693.061 116.704C693.361 116.896 693.757 116.992 694.249 116.992C694.681 116.992 695.071 116.902 695.419 116.722C695.779 116.542 696.067 116.242 696.283 115.822C696.499 115.39 696.607 114.802 696.607 114.058C696.607 113.134 696.379 112.45 695.923 112.006C695.467 111.562 694.843 111.34 694.051 111.34C693.523 111.34 693.103 111.376 692.791 111.448C692.491 111.52 692.215 111.598 691.963 111.682L691.297 111.43L691.873 105.148H698.371L698.461 108.208H697.543L697.417 107.632C697.369 107.392 697.291 107.218 697.183 107.11C697.075 106.99 696.859 106.93 696.535 106.93H692.899L692.575 110.494C692.767 110.434 693.043 110.374 693.403 110.314C693.775 110.254 694.177 110.224 694.609 110.224C695.485 110.224 696.253 110.368 696.913 110.656C697.573 110.932 698.089 111.358 698.461 111.934C698.833 112.498 699.019 113.206 699.019 114.058C699.019 115.006 698.803 115.786 698.371 116.398C697.951 117.01 697.393 117.46 696.697 117.748C696.013 118.036 695.269 118.18 694.465 118.18ZM705.149 118.18C704.093 118.18 703.247 117.904 702.611 117.352C701.975 116.8 701.513 116.026 701.225 115.03C700.937 114.034 700.793 112.87 700.793 111.538C700.793 110.206 700.937 109.048 701.225 108.064C701.513 107.08 701.975 106.318 702.611 105.778C703.247 105.238 704.099 104.968 705.167 104.968C706.163 104.968 706.979 105.238 707.615 105.778C708.263 106.318 708.737 107.086 709.037 108.082C709.337 109.066 709.487 110.224 709.487 111.556C709.487 112.888 709.331 114.052 709.019 115.048C708.719 116.032 708.251 116.8 707.615 117.352C706.979 117.904 706.157 118.18 705.149 118.18ZM705.149 117.082C705.893 117.082 706.391 116.602 706.643 115.642C706.907 114.67 707.039 113.308 707.039 111.556C707.039 109.804 706.907 108.454 706.643 107.506C706.391 106.546 705.899 106.066 705.167 106.066C704.411 106.066 703.901 106.546 703.637 107.506C703.373 108.454 703.241 109.804 703.241 111.556C703.241 113.308 703.373 114.67 703.637 115.642C703.901 116.602 704.405 117.082 705.149 117.082ZM715.204 118.18C714.148 118.18 713.302 117.904 712.666 117.352C712.03 116.8 711.568 116.026 711.28 115.03C710.992 114.034 710.848 112.87 710.848 111.538C710.848 110.206 710.992 109.048 711.28 108.064C711.568 107.08 712.03 106.318 712.666 105.778C713.302 105.238 714.154 104.968 715.222 104.968C716.218 104.968 717.034 105.238 717.67 105.778C718.318 106.318 718.792 107.086 719.092 108.082C719.392 109.066 719.542 110.224 719.542 111.556C719.542 112.888 719.386 114.052 719.074 115.048C718.774 116.032 718.306 116.8 717.67 117.352C717.034 117.904 716.212 118.18 715.204 118.18ZM715.204 117.082C715.948 117.082 716.446 116.602 716.698 115.642C716.962 114.67 717.094 113.308 717.094 111.556C717.094 109.804 716.962 108.454 716.698 107.506C716.446 106.546 715.954 106.066 715.222 106.066C714.466 106.066 713.956 106.546 713.692 107.506C713.428 108.454 713.296 109.804 713.296 111.556C713.296 113.308 713.428 114.67 713.692 115.642C713.956 116.602 714.46 117.082 715.204 117.082ZM725.345 113.932V112.258H730.025V113.932H725.345ZM739.733 119.422V117.244C738.881 117.232 738.185 117.112 737.645 116.884C737.105 116.644 736.709 116.338 736.457 115.966C736.205 115.594 736.079 115.192 736.079 114.76C736.079 114.292 736.229 113.95 736.529 113.734C736.829 113.518 737.189 113.41 737.609 113.41C737.657 114.25 737.855 114.94 738.203 115.48C738.551 116.008 739.061 116.302 739.733 116.362V112.258C738.905 111.91 738.257 111.568 737.789 111.232C737.321 110.884 736.991 110.512 736.799 110.116C736.607 109.72 736.511 109.258 736.511 108.73C736.511 107.89 736.805 107.206 737.393 106.678C737.993 106.138 738.773 105.814 739.733 105.706V104.32H740.705V105.688C741.773 105.724 742.547 105.922 743.027 106.282C743.507 106.63 743.747 107.062 743.747 107.578C743.747 107.95 743.597 108.256 743.297 108.496C742.997 108.724 742.553 108.838 741.965 108.838C741.965 108.562 741.923 108.274 741.839 107.974C741.767 107.662 741.641 107.392 741.461 107.164C741.281 106.924 741.029 106.756 740.705 106.66V110.422C741.137 110.626 741.557 110.83 741.965 111.034C742.373 111.226 742.739 111.448 743.063 111.7C743.399 111.94 743.663 112.24 743.855 112.6C744.059 112.96 744.161 113.404 744.161 113.932C744.161 114.844 743.855 115.588 743.243 116.164C742.643 116.74 741.797 117.088 740.705 117.208V119.422H739.733ZM739.733 109.972V106.624C739.337 106.696 739.019 106.876 738.779 107.164C738.539 107.44 738.419 107.788 738.419 108.208C738.419 108.604 738.515 108.94 738.707 109.216C738.911 109.48 739.253 109.732 739.733 109.972ZM740.705 116.308C741.185 116.212 741.557 116.008 741.821 115.696C742.085 115.384 742.217 115 742.217 114.544C742.217 114.136 742.091 113.788 741.839 113.5C741.599 113.212 741.221 112.942 740.705 112.69V116.308ZM746.943 118V117.118H748.311C748.659 117.118 748.929 117.04 749.121 116.884C749.325 116.716 749.427 116.392 749.427 115.912V106.714C748.971 107.278 748.557 107.734 748.185 108.082C747.825 108.418 747.465 108.586 747.105 108.586C746.829 108.586 746.595 108.478 746.403 108.262C746.211 108.046 746.115 107.758 746.115 107.398C746.475 107.314 746.865 107.176 747.285 106.984C747.717 106.78 748.233 106.456 748.833 106.012L750.093 105.076H751.785V115.912C751.785 116.356 751.875 116.668 752.055 116.848C752.235 117.028 752.523 117.118 752.919 117.118H754.143V118H746.943ZM760.292 118.18C759.236 118.18 758.39 117.904 757.754 117.352C757.118 116.8 756.656 116.026 756.368 115.03C756.08 114.034 755.936 112.87 755.936 111.538C755.936 110.206 756.08 109.048 756.368 108.064C756.656 107.08 757.118 106.318 757.754 105.778C758.39 105.238 759.242 104.968 760.31 104.968C761.306 104.968 762.122 105.238 762.758 105.778C763.406 106.318 763.88 107.086 764.18 108.082C764.48 109.066 764.63 110.224 764.63 111.556C764.63 112.888 764.474 114.052 764.162 115.048C763.862 116.032 763.394 116.8 762.758 117.352C762.122 117.904 761.3 118.18 760.292 118.18ZM760.292 117.082C761.036 117.082 761.534 116.602 761.786 115.642C762.05 114.67 762.182 113.308 762.182 111.556C762.182 109.804 762.05 108.454 761.786 107.506C761.534 106.546 761.042 106.066 760.31 106.066C759.554 106.066 759.044 106.546 758.78 107.506C758.516 108.454 758.384 109.804 758.384 111.556C758.384 113.308 758.516 114.67 758.78 115.642C759.044 116.602 759.548 117.082 760.292 117.082ZM766.009 120.772V119.908C766.561 119.716 766.969 119.506 767.233 119.278C767.509 119.05 767.647 118.762 767.647 118.414C767.647 118.234 767.581 118.096 767.449 118C767.317 117.916 767.161 117.832 766.981 117.748C766.813 117.652 766.663 117.52 766.531 117.352C766.399 117.172 766.333 116.92 766.333 116.596C766.333 116.212 766.453 115.924 766.693 115.732C766.933 115.528 767.227 115.426 767.575 115.426C768.031 115.426 768.403 115.588 768.691 115.912C768.991 116.236 769.141 116.68 769.141 117.244C769.141 118.012 768.901 118.714 768.421 119.35C767.953 119.986 767.149 120.46 766.009 120.772ZM775.339 118.18C774.283 118.18 773.437 117.904 772.801 117.352C772.165 116.8 771.703 116.026 771.415 115.03C771.127 114.034 770.983 112.87 770.983 111.538C770.983 110.206 771.127 109.048 771.415 108.064C771.703 107.08 772.165 106.318 772.801 105.778C773.437 105.238 774.289 104.968 775.357 104.968C776.353 104.968 777.169 105.238 777.805 105.778C778.453 106.318 778.927 107.086 779.227 108.082C779.527 109.066 779.677 110.224 779.677 111.556C779.677 112.888 779.521 114.052 779.209 115.048C778.909 116.032 778.441 116.8 777.805 117.352C777.169 117.904 776.347 118.18 775.339 118.18ZM775.339 117.082C776.083 117.082 776.581 116.602 776.833 115.642C777.097 114.67 777.229 113.308 777.229 111.556C777.229 109.804 777.097 108.454 776.833 107.506C776.581 106.546 776.089 106.066 775.357 106.066C774.601 106.066 774.091 106.546 773.827 107.506C773.563 108.454 773.431 109.804 773.431 111.556C773.431 113.308 773.563 114.67 773.827 115.642C774.091 116.602 774.595 117.082 775.339 117.082ZM785.394 118.18C784.338 118.18 783.492 117.904 782.856 117.352C782.22 116.8 781.758 116.026 781.47 115.03C781.182 114.034 781.038 112.87 781.038 111.538C781.038 110.206 781.182 109.048 781.47 108.064C781.758 107.08 782.22 106.318 782.856 105.778C783.492 105.238 784.344 104.968 785.412 104.968C786.408 104.968 787.224 105.238 787.86 105.778C788.508 106.318 788.982 107.086 789.282 108.082C789.582 109.066 789.732 110.224 789.732 111.556C789.732 112.888 789.576 114.052 789.264 115.048C788.964 116.032 788.496 116.8 787.86 117.352C787.224 117.904 786.402 118.18 785.394 118.18ZM785.394 117.082C786.138 117.082 786.636 116.602 786.888 115.642C787.152 114.67 787.284 113.308 787.284 111.556C787.284 109.804 787.152 108.454 786.888 107.506C786.636 106.546 786.144 106.066 785.412 106.066C784.656 106.066 784.146 106.546 783.882 107.506C783.618 108.454 783.486 109.804 783.486 111.556C783.486 113.308 783.618 114.67 783.882 115.642C784.146 116.602 784.65 117.082 785.394 117.082ZM795.448 118.18C794.392 118.18 793.546 117.904 792.91 117.352C792.274 116.8 791.812 116.026 791.524 115.03C791.236 114.034 791.092 112.87 791.092 111.538C791.092 110.206 791.236 109.048 791.524 108.064C791.812 107.08 792.274 106.318 792.91 105.778C793.546 105.238 794.398 104.968 795.466 104.968C796.462 104.968 797.278 105.238 797.914 105.778C798.562 106.318 799.036 107.086 799.336 108.082C799.636 109.066 799.786 110.224 799.786 111.556C799.786 112.888 799.63 114.052 799.318 115.048C799.018 116.032 798.55 116.8 797.914 117.352C797.278 117.904 796.456 118.18 795.448 118.18ZM795.448 117.082C796.192 117.082 796.69 116.602 796.942 115.642C797.206 114.67 797.338 113.308 797.338 111.556C797.338 109.804 797.206 108.454 796.942 107.506C796.69 106.546 796.198 106.066 795.466 106.066C794.71 106.066 794.2 106.546 793.936 107.506C793.672 108.454 793.54 109.804 793.54 111.556C793.54 113.308 793.672 114.67 793.936 115.642C794.2 116.602 794.704 117.082 795.448 117.082ZM805.503 118.18C804.447 118.18 803.601 117.904 802.965 117.352C802.329 116.8 801.867 116.026 801.579 115.03C801.291 114.034 801.147 112.87 801.147 111.538C801.147 110.206 801.291 109.048 801.579 108.064C801.867 107.08 802.329 106.318 802.965 105.778C803.601 105.238 804.453 104.968 805.521 104.968C806.517 104.968 807.333 105.238 807.969 105.778C808.617 106.318 809.091 107.086 809.391 108.082C809.691 109.066 809.841 110.224 809.841 111.556C809.841 112.888 809.685 114.052 809.373 115.048C809.073 116.032 808.605 116.8 807.969 117.352C807.333 117.904 806.511 118.18 805.503 118.18ZM805.503 117.082C806.247 117.082 806.745 116.602 806.997 115.642C807.261 114.67 807.393 113.308 807.393 111.556C807.393 109.804 807.261 108.454 806.997 107.506C806.745 106.546 806.253 106.066 805.521 106.066C804.765 106.066 804.255 106.546 803.991 107.506C803.727 108.454 803.595 109.804 803.595 111.556C803.595 113.308 803.727 114.67 803.991 115.642C804.255 116.602 804.759 117.082 805.503 117.082Z" fill="#FF715B"/>
<path d="M682.624 80.36V85H681.152V73.544H685.056C686.048 73.544 686.891 73.8747 687.584 74.536C688.288 75.1973 688.64 76.0027 688.64 76.952C688.64 77.9227 688.288 78.7333 687.584 79.384C686.901 80.0347 686.059 80.36 685.056 80.36H682.624ZM682.624 74.952V78.952H685.088C685.675 78.952 686.16 78.7547 686.544 78.36C686.939 77.9653 687.136 77.496 687.136 76.952C687.136 76.4187 686.939 75.9547 686.544 75.56C686.16 75.1547 685.675 74.952 685.088 74.952H682.624ZM691.399 85H689.927V77.16H691.335V78.44H691.399C691.549 78.024 691.853 77.672 692.311 77.384C692.781 77.0853 693.239 76.936 693.687 76.936C694.114 76.936 694.477 77 694.775 77.128L694.327 78.552C694.146 78.4773 693.858 78.44 693.463 78.44C692.909 78.44 692.423 78.664 692.007 79.112C691.602 79.56 691.399 80.0827 691.399 80.68V85ZM697.644 74.456C697.644 74.744 697.542 74.9893 697.34 75.192C697.137 75.3947 696.892 75.496 696.604 75.496C696.316 75.496 696.07 75.3947 695.868 75.192C695.665 74.9893 695.564 74.744 695.564 74.456C695.564 74.168 695.665 73.9227 695.868 73.72C696.07 73.5173 696.316 73.416 696.604 73.416C696.892 73.416 697.137 73.5173 697.34 73.72C697.542 73.9227 697.644 74.168 697.644 74.456ZM697.34 77.16V85H695.868V77.16H697.34ZM702.761 85.256C701.599 85.256 700.633 84.8613 699.865 84.072C699.108 83.2613 698.729 82.264 698.729 81.08C698.729 79.8747 699.108 78.8773 699.865 78.088C700.633 77.2987 701.599 76.904 702.761 76.904C703.561 76.904 704.26 77.1067 704.857 77.512C705.455 77.9067 705.903 78.456 706.201 79.16L704.857 79.72C704.441 78.7387 703.711 78.248 702.665 78.248C701.993 78.248 701.412 78.52 700.921 79.064C700.441 79.608 700.201 80.28 700.201 81.08C700.201 81.88 700.441 82.552 700.921 83.096C701.412 83.64 701.993 83.912 702.665 83.912C703.743 83.912 704.5 83.4213 704.937 82.44L706.249 83C705.961 83.704 705.508 84.2587 704.889 84.664C704.281 85.0587 703.572 85.256 702.761 85.256ZM710.979 85.256C709.827 85.256 708.877 84.8613 708.131 84.072C707.384 83.2827 707.011 82.2853 707.011 81.08C707.011 79.8853 707.373 78.8933 708.099 78.104C708.824 77.304 709.752 76.904 710.883 76.904C712.045 76.904 712.968 77.2827 713.651 78.04C714.344 78.7867 714.691 79.8373 714.691 81.192L714.675 81.352H708.515C708.536 82.12 708.792 82.7387 709.283 83.208C709.773 83.6773 710.36 83.912 711.043 83.912C711.981 83.912 712.717 83.4427 713.251 82.504L714.562 83.144C714.211 83.8053 713.72 84.3227 713.091 84.696C712.472 85.0693 711.768 85.256 710.979 85.256ZM708.627 80.136H713.123C713.08 79.592 712.856 79.144 712.451 78.792C712.056 78.4293 711.523 78.248 710.851 78.248C710.296 78.248 709.816 78.4187 709.411 78.76C709.016 79.1013 708.755 79.56 708.627 80.136ZM721.28 74.952V78.984H723.648C724.246 78.984 724.752 78.792 725.168 78.408C725.584 78.0133 725.792 77.528 725.792 76.952C725.792 76.4187 725.595 75.9547 725.2 75.56C724.816 75.1547 724.331 74.952 723.744 74.952H721.28ZM721.28 85H719.808V73.544H723.712C724.704 73.544 725.547 73.8747 726.24 74.536C726.944 75.1867 727.296 75.992 727.296 76.952C727.296 77.7413 727.035 78.4453 726.512 79.064C726 79.672 725.35 80.0613 724.56 80.232L724.528 80.28L727.744 84.936V85H726L722.912 80.36H721.28V85ZM729.796 82.6C729.796 82.984 729.956 83.304 730.276 83.56C730.607 83.816 730.991 83.944 731.428 83.944C732.047 83.944 732.596 83.7147 733.076 83.256C733.567 82.7973 733.812 82.2587 733.812 81.64C733.353 81.2773 732.713 81.096 731.892 81.096C731.295 81.096 730.793 81.24 730.388 81.528C729.993 81.816 729.796 82.1733 729.796 82.6ZM731.7 76.904C732.788 76.904 733.647 77.1973 734.276 77.784C734.905 78.36 735.22 79.1547 735.22 80.168V85H733.812V83.912H733.748C733.14 84.808 732.329 85.256 731.316 85.256C730.452 85.256 729.727 85 729.14 84.488C728.564 83.976 728.276 83.336 728.276 82.568C728.276 81.7573 728.58 81.112 729.188 80.632C729.807 80.152 730.628 79.912 731.652 79.912C732.527 79.912 733.247 80.072 733.812 80.392V80.056C733.812 79.544 733.609 79.112 733.204 78.76C732.799 78.3973 732.324 78.216 731.78 78.216C730.959 78.216 730.308 78.5627 729.828 79.256L728.532 78.44C729.247 77.416 730.303 76.904 731.7 76.904ZM736.88 77.16H738.288V78.248H738.352C738.576 77.864 738.918 77.544 739.376 77.288C739.846 77.032 740.331 76.904 740.832 76.904C741.792 76.904 742.528 77.1813 743.04 77.736C743.563 78.28 743.824 79.0587 743.824 80.072V85H742.352V80.168C742.32 78.888 741.675 78.248 740.416 78.248C739.83 78.248 739.339 78.488 738.944 78.968C738.55 79.4373 738.352 80.0027 738.352 80.664V85H736.88V77.16ZM748.994 83.912C749.719 83.912 750.311 83.6507 750.77 83.128C751.25 82.6053 751.49 81.9227 751.49 81.08C751.49 80.2587 751.25 79.5813 750.77 79.048C750.301 78.5147 749.709 78.248 748.994 78.248C748.29 78.248 747.698 78.5147 747.218 79.048C746.738 79.5813 746.498 80.2587 746.498 81.08C746.498 81.912 746.738 82.5893 747.218 83.112C747.698 83.6453 748.29 83.912 748.994 83.912ZM748.946 88.712C748.509 88.712 748.098 88.6533 747.714 88.536C747.33 88.4293 746.978 88.2747 746.658 88.072C746.349 87.8693 746.082 87.6293 745.858 87.352C745.634 87.0747 745.463 86.7653 745.346 86.424L746.738 85.848C746.898 86.3067 747.175 86.6747 747.57 86.952C747.965 87.2293 748.423 87.368 748.946 87.368C749.746 87.368 750.37 87.128 750.818 86.648C751.266 86.168 751.49 85.5067 751.49 84.664V83.912H751.426C751.149 84.328 750.77 84.6587 750.29 84.904C749.821 85.1387 749.309 85.256 748.754 85.256C747.73 85.256 746.85 84.856 746.114 84.056C745.389 83.2347 745.026 82.2427 745.026 81.08C745.026 79.9173 745.389 78.9307 746.114 78.12C746.85 77.3093 747.73 76.904 748.754 76.904C749.309 76.904 749.821 77.0267 750.29 77.272C750.77 77.5067 751.149 77.832 751.426 78.248H751.49V77.16H752.898V84.664C752.898 85.9227 752.541 86.9093 751.826 87.624C751.101 88.3493 750.141 88.712 748.946 88.712ZM758.135 85.256C756.983 85.256 756.033 84.8613 755.287 84.072C754.54 83.2827 754.167 82.2853 754.167 81.08C754.167 79.8853 754.529 78.8933 755.255 78.104C755.98 77.304 756.908 76.904 758.039 76.904C759.201 76.904 760.124 77.2827 760.807 78.04C761.5 78.7867 761.847 79.8373 761.847 81.192L761.831 81.352H755.671C755.692 82.12 755.948 82.7387 756.439 83.208C756.929 83.6773 757.516 83.912 758.199 83.912C759.137 83.912 759.873 83.4427 760.407 82.504L761.719 83.144C761.367 83.8053 760.876 84.3227 760.247 84.696C759.628 85.0693 758.924 85.256 758.135 85.256ZM755.783 80.136H760.279C760.236 79.592 760.012 79.144 759.607 78.792C759.212 78.4293 758.679 78.248 758.007 78.248C757.452 78.248 756.972 78.4187 756.567 78.76C756.172 79.1013 755.911 79.56 755.783 80.136Z" fill="#A79997"/>
<rect x="380" y="133" width="240" height="1" rx="0.5" fill="#F5EBE9"/>
<path d="M385.04 118.18C383.984 118.18 383.138 117.904 382.502 117.352C381.866 116.8 381.404 116.026 381.116 115.03C380.828 114.034 380.684 112.87 380.684 111.538C380.684 110.206 380.828 109.048 381.116 108.064C381.404 107.08 381.866 106.318 382.502 105.778C383.138 105.238 383.99 104.968 385.058 104.968C386.054 104.968 386.87 105.238 387.506 105.778C388.154 106.318 388.628 107.086 388.928 108.082C389.228 109.066 389.378 110.224 389.378 111.556C389.378 112.888 389.222 114.052 388.91 115.048C388.61 116.032 388.142 116.8 387.506 117.352C386.87 117.904 386.048 118.18 385.04 118.18ZM385.04 117.082C385.784 117.082 386.282 116.602 386.534 115.642C386.798 114.67 386.93 113.308 386.93 111.556C386.93 109.804 386.798 108.454 386.534 107.506C386.282 106.546 385.79 106.066 385.058 106.066C384.302 106.066 383.792 106.546 383.528 107.506C383.264 108.454 383.132 109.804 383.132 111.556C383.132 113.308 383.264 114.67 383.528 115.642C383.792 116.602 384.296 117.082 385.04 117.082ZM391.801 118V117.118H393.169C393.517 117.118 393.787 117.04 393.979 116.884C394.183 116.716 394.285 116.392 394.285 115.912V106.714C393.829 107.278 393.415 107.734 393.043 108.082C392.683 108.418 392.323 108.586 391.963 108.586C391.687 108.586 391.453 108.478 391.261 108.262C391.069 108.046 390.973 107.758 390.973 107.398C391.333 107.314 391.723 107.176 392.143 106.984C392.575 106.78 393.091 106.456 393.691 106.012L394.951 105.076H396.643V115.912C396.643 116.356 396.733 116.668 396.913 116.848C397.093 117.028 397.381 117.118 397.777 117.118H399.001V118H391.801ZM405.361 118V117.118H405.919C406.219 117.118 406.483 117.058 406.711 116.938C406.939 116.806 407.053 116.494 407.053 116.002V107.164C407.053 106.672 406.939 106.36 406.711 106.228C406.483 106.096 406.219 106.03 405.919 106.03H405.361V105.148H414.991L415.081 108.406H413.947L413.857 107.56C413.809 107.116 413.665 106.774 413.425 106.534C413.185 106.294 412.843 106.174 412.399 106.174H409.501V111.196H413.785V112.186H409.501V115.912C409.501 116.44 409.609 116.776 409.825 116.92C410.053 117.052 410.323 117.118 410.635 117.118H411.553V118H405.361ZM420.415 118.18C418.963 118.18 417.853 117.748 417.085 116.884C416.317 116.02 415.933 114.802 415.933 113.23C415.933 111.55 416.305 110.284 417.049 109.432C417.793 108.568 418.849 108.136 420.217 108.136C421.465 108.136 422.449 108.502 423.169 109.234C423.889 109.966 424.249 111.04 424.249 112.456V113.338H418.309C418.345 114.586 418.573 115.498 418.993 116.074C419.425 116.638 420.037 116.92 420.829 116.92C421.453 116.92 421.981 116.782 422.413 116.506C422.845 116.23 423.169 115.906 423.385 115.534C423.673 115.678 423.817 115.936 423.817 116.308C423.817 116.62 423.691 116.92 423.439 117.208C423.199 117.484 422.827 117.718 422.323 117.91C421.831 118.09 421.195 118.18 420.415 118.18ZM418.345 112.258H421.855C421.855 111.334 421.729 110.602 421.477 110.062C421.237 109.51 420.823 109.234 420.235 109.234C419.671 109.234 419.227 109.492 418.903 110.008C418.579 110.524 418.393 111.274 418.345 112.258ZM431.911 118.18C431.215 118.18 430.645 118.036 430.201 117.748C429.769 117.448 429.421 117.064 429.157 116.596H429.013L428.581 118H425.359V117.118H425.503C425.743 117.118 425.971 117.088 426.187 117.028C426.403 116.968 426.577 116.848 426.709 116.668C426.841 116.488 426.907 116.212 426.907 115.84V106.408C426.907 105.88 426.763 105.55 426.475 105.418C426.187 105.274 425.851 105.202 425.467 105.202H425.359V104.32H429.247V107.488C429.247 107.68 429.241 107.92 429.229 108.208C429.217 108.496 429.199 108.778 429.175 109.054C429.163 109.33 429.151 109.552 429.139 109.72H429.229C429.493 109.24 429.841 108.862 430.273 108.586C430.705 108.298 431.269 108.154 431.965 108.154C433.141 108.154 434.041 108.556 434.665 109.36C435.289 110.152 435.601 111.412 435.601 113.14C435.601 114.892 435.283 116.17 434.647 116.974C434.023 117.778 433.111 118.18 431.911 118.18ZM431.335 116.902C431.995 116.902 432.469 116.578 432.757 115.93C433.057 115.282 433.207 114.346 433.207 113.122C433.207 111.886 433.057 110.962 432.757 110.35C432.469 109.726 431.989 109.414 431.317 109.414C430.513 109.414 429.967 109.72 429.679 110.332C429.391 110.944 429.247 111.88 429.247 113.14C429.247 114.352 429.391 115.282 429.679 115.93C429.979 116.578 430.531 116.902 431.335 116.902ZM437.198 120.772V119.908C437.75 119.716 438.158 119.506 438.422 119.278C438.698 119.05 438.836 118.762 438.836 118.414C438.836 118.234 438.77 118.096 438.638 118C438.506 117.916 438.35 117.832 438.17 117.748C438.002 117.652 437.852 117.52 437.72 117.352C437.588 117.172 437.522 116.92 437.522 116.596C437.522 116.212 437.642 115.924 437.882 115.732C438.122 115.528 438.416 115.426 438.764 115.426C439.22 115.426 439.592 115.588 439.88 115.912C440.18 116.236 440.33 116.68 440.33 117.244C440.33 118.012 440.09 118.714 439.61 119.35C439.142 119.986 438.338 120.46 437.198 120.772ZM446.974 118V116.344L449.764 113.338C450.46 112.594 451.006 111.94 451.402 111.376C451.798 110.812 452.074 110.272 452.23 109.756C452.386 109.228 452.464 108.67 452.464 108.082C452.464 106.69 451.936 105.994 450.88 105.994C450.196 105.994 449.728 106.258 449.476 106.786C449.236 107.314 449.116 108.034 449.116 108.946C448.516 108.946 448.03 108.832 447.658 108.604C447.286 108.376 447.1 107.974 447.1 107.398C447.1 106.738 447.418 106.168 448.054 105.688C448.69 105.208 449.632 104.968 450.88 104.968C452.152 104.968 453.13 105.238 453.814 105.778C454.498 106.318 454.84 107.044 454.84 107.956C454.84 108.508 454.708 109.054 454.444 109.594C454.18 110.134 453.754 110.74 453.166 111.412C452.578 112.084 451.792 112.906 450.808 113.878L448.54 116.218H452.716C453.148 116.218 453.484 116.104 453.724 115.876C453.964 115.636 454.132 115.324 454.228 114.94L454.336 114.472H455.29L455.2 118H446.974ZM461.259 118.18C460.203 118.18 459.357 117.904 458.721 117.352C458.085 116.8 457.623 116.026 457.335 115.03C457.047 114.034 456.903 112.87 456.903 111.538C456.903 110.206 457.047 109.048 457.335 108.064C457.623 107.08 458.085 106.318 458.721 105.778C459.357 105.238 460.209 104.968 461.277 104.968C462.273 104.968 463.089 105.238 463.725 105.778C464.373 106.318 464.847 107.086 465.147 108.082C465.447 109.066 465.597 110.224 465.597 111.556C465.597 112.888 465.441 114.052 465.129 115.048C464.829 116.032 464.361 116.8 463.725 117.352C463.089 117.904 462.267 118.18 461.259 118.18ZM461.259 117.082C462.003 117.082 462.501 116.602 462.753 115.642C463.017 114.67 463.149 113.308 463.149 111.556C463.149 109.804 463.017 108.454 462.753 107.506C462.501 106.546 462.009 106.066 461.277 106.066C460.521 106.066 460.011 106.546 459.747 107.506C459.483 108.454 459.351 109.804 459.351 111.556C459.351 113.308 459.483 114.67 459.747 115.642C460.011 116.602 460.515 117.082 461.259 117.082ZM467.083 118V116.344L469.873 113.338C470.569 112.594 471.115 111.94 471.511 111.376C471.907 110.812 472.183 110.272 472.339 109.756C472.495 109.228 472.573 108.67 472.573 108.082C472.573 106.69 472.045 105.994 470.989 105.994C470.305 105.994 469.837 106.258 469.585 106.786C469.345 107.314 469.225 108.034 469.225 108.946C468.625 108.946 468.139 108.832 467.767 108.604C467.395 108.376 467.209 107.974 467.209 107.398C467.209 106.738 467.527 106.168 468.163 105.688C468.799 105.208 469.741 104.968 470.989 104.968C472.261 104.968 473.239 105.238 473.923 105.778C474.607 106.318 474.949 107.044 474.949 107.956C474.949 108.508 474.817 109.054 474.553 109.594C474.289 110.134 473.863 110.74 473.275 111.412C472.687 112.084 471.901 112.906 470.917 113.878L468.649 116.218H472.825C473.257 116.218 473.593 116.104 473.833 115.876C474.073 115.636 474.241 115.324 474.337 114.94L474.445 114.472H475.399L475.309 118H467.083ZM478.074 118V117.118H479.442C479.79 117.118 480.06 117.04 480.252 116.884C480.456 116.716 480.558 116.392 480.558 115.912V106.714C480.102 107.278 479.688 107.734 479.316 108.082C478.956 108.418 478.596 108.586 478.236 108.586C477.96 108.586 477.726 108.478 477.534 108.262C477.342 108.046 477.246 107.758 477.246 107.398C477.606 107.314 477.996 107.176 478.416 106.984C478.848 106.78 479.364 106.456 479.964 106.012L481.224 105.076H482.916V115.912C482.916 116.356 483.006 116.668 483.186 116.848C483.366 117.028 483.654 117.118 484.05 117.118H485.274V118H478.074Z" fill="#FF715B"/>
<path d="M609.25 109.15C609.25 109.47 608.99 109.74 608.66 109.74C608.33 109.74 608.08 109.48 608.08 109.15C608.08 108.83 608.34 108.56 608.67 108.56C609 108.56 609.25 108.83 609.25 109.15ZM614.35 109.15C614.35 108.83 614.09 108.56 613.76 108.56C613.43 108.56 613.17 108.83 613.17 109.15C613.17 109.47 613.43 109.74 613.76 109.74C614.09 109.74 614.35 109.48 614.35 109.15ZM616.89 109.15C616.89 108.83 616.63 108.56 616.3 108.56C615.97 108.56 615.71 108.82 615.71 109.15C615.71 109.47 615.97 109.74 616.3 109.74C616.63 109.74 616.89 109.48 616.89 109.15ZM609.25 111.7C609.25 111.38 608.99 111.11 608.66 111.11C608.33 111.11 608.08 111.38 608.08 111.7C608.08 112.02 608.34 112.29 608.67 112.29C609 112.29 609.25 112.02 609.25 111.7ZM608.66 113.66C608.34 113.66 608.07 113.92 608.07 114.25C608.07 114.57 608.33 114.84 608.66 114.84C608.99 114.84 609.25 114.58 609.25 114.25C609.25 113.93 608.99 113.66 608.66 113.66ZM611.8 109.15C611.8 108.83 611.54 108.56 611.21 108.56C610.88 108.56 610.63 108.83 610.63 109.15C610.63 109.47 610.89 109.74 611.22 109.74C611.55 109.74 611.8 109.48 611.8 109.15ZM611.8 111.7C611.8 111.38 611.54 111.11 611.21 111.11C610.88 111.11 610.63 111.38 610.63 111.7C610.63 112.02 610.89 112.29 611.22 112.29C611.55 112.29 611.8 112.02 611.8 111.7ZM611.21 113.66C610.89 113.66 610.62 113.92 610.62 114.25C610.62 114.57 610.88 114.84 611.21 114.84C611.54 114.84 611.8 114.58 611.8 114.25C611.8 113.93 611.53 113.66 611.21 113.66ZM620 114.46C620 116.41 618.41 118 616.46 118C614.51 118 612.92 116.41 612.92 114.46C612.92 112.51 614.51 110.92 616.46 110.92C618.41 110.92 620 112.5 620 114.46ZM618.83 114.46C618.83 113.15 617.77 112.09 616.46 112.09C615.15 112.09 614.09 113.15 614.09 114.46C614.09 115.77 615.15 116.83 616.46 116.83C617.77 116.83 618.83 115.76 618.83 114.46ZM617.3 113.87H617.04V113.25C617.04 112.93 616.78 112.66 616.45 112.66C616.12 112.66 615.86 112.92 615.86 113.25V114.45C615.86 114.77 616.12 115.04 616.45 115.04H617.3C617.62 115.04 617.89 114.78 617.89 114.45C617.89 114.12 617.63 113.87 617.3 113.87ZM617.66 104.17H616.9V103.59C616.9 103.27 616.64 103 616.31 103C615.98 103 615.72 103.26 615.72 103.59V104.18H613.06V103.59C613.06 103.26 612.79 103 612.47 103C612.15 103 611.88 103.26 611.88 103.59V104.18H609.25V103.59C609.25 103.26 608.99 103 608.66 103C608.33 103 608.08 103.26 608.08 103.59V104.18H607.34C606.05 104.17 605 105.22 605 106.52V115.66C605 116.95 606.05 118 607.34 118H611.82C612.14 118 612.41 117.74 612.41 117.41C612.41 117.08 612.15 116.82 611.82 116.82H607.34C606.69 116.82 606.17 116.29 606.17 115.65V106.52C606.17 105.87 606.7 105.35 607.34 105.35H608.07V105.94C608.07 106.26 608.33 106.53 608.66 106.53C608.99 106.53 609.25 106.27 609.25 105.94V105.34H611.89V105.93C611.89 106.25 612.15 106.52 612.48 106.52C612.8 106.52 613.07 106.26 613.07 105.93V105.34H615.74V105.93C615.74 106.25 616 106.52 616.33 106.52C616.66 106.52 616.92 106.26 616.92 105.93V105.34H617.68C618.33 105.34 618.85 105.87 618.85 106.51V109.85C618.85 110.17 619.11 110.44 619.44 110.44C619.77 110.44 620 110.18 620 109.86V106.52C620 105.22 618.95 104.17 617.66 104.17Z" fill="#FF715B"/>
<path d="M386.544 85.256C384.848 85.256 383.429 84.6853 382.288 83.544C381.157 82.4027 380.592 80.9787 380.592 79.272C380.592 77.5653 381.157 76.1467 382.288 75.016C383.419 73.864 384.837 73.288 386.544 73.288C388.272 73.288 389.675 73.912 390.752 75.16L389.696 76.184C388.875 75.192 387.824 74.696 386.544 74.696C385.275 74.696 384.213 75.1227 383.36 75.976C382.517 76.8187 382.096 77.9173 382.096 79.272C382.096 80.6267 382.517 81.7253 383.36 82.568C384.213 83.4213 385.275 83.848 386.544 83.848C387.877 83.848 389.035 83.288 390.016 82.168L391.088 83.208C390.544 83.8587 389.877 84.3653 389.088 84.728C388.299 85.08 387.451 85.256 386.544 85.256ZM392.396 73.544H393.868V77.16L393.804 78.248H393.868C394.092 77.864 394.433 77.544 394.892 77.288C395.361 77.032 395.847 76.904 396.348 76.904C397.308 76.904 398.044 77.1813 398.556 77.736C399.079 78.28 399.34 79.0587 399.34 80.072V85H397.868V80.36C397.868 78.952 397.244 78.248 395.996 78.248C395.399 78.248 394.892 78.4987 394.476 79C394.071 79.4907 393.868 80.0667 393.868 80.728V85H392.396V73.544ZM404.588 85.256C403.436 85.256 402.487 84.8613 401.74 84.072C400.993 83.2827 400.62 82.2853 400.62 81.08C400.62 79.8853 400.983 78.8933 401.708 78.104C402.433 77.304 403.361 76.904 404.492 76.904C405.655 76.904 406.577 77.2827 407.26 78.04C407.953 78.7867 408.3 79.8373 408.3 81.192L408.284 81.352H402.124C402.145 82.12 402.401 82.7387 402.892 83.208C403.383 83.6773 403.969 83.912 404.652 83.912C405.591 83.912 406.327 83.4427 406.86 82.504L408.172 83.144C407.82 83.8053 407.329 84.3227 406.7 84.696C406.081 85.0693 405.377 85.256 404.588 85.256ZM402.236 80.136H406.732C406.689 79.592 406.465 79.144 406.06 78.792C405.665 78.4293 405.132 78.248 404.46 78.248C403.905 78.248 403.425 78.4187 403.02 78.76C402.625 79.1013 402.364 79.56 402.236 80.136ZM413.308 85.256C412.145 85.256 411.18 84.8613 410.412 84.072C409.655 83.2613 409.276 82.264 409.276 81.08C409.276 79.8747 409.655 78.8773 410.412 78.088C411.18 77.2987 412.145 76.904 413.308 76.904C414.108 76.904 414.807 77.1067 415.404 77.512C416.001 77.9067 416.449 78.456 416.748 79.16L415.404 79.72C414.988 78.7387 414.257 78.248 413.212 78.248C412.54 78.248 411.959 78.52 411.468 79.064C410.988 79.608 410.748 80.28 410.748 81.08C410.748 81.88 410.988 82.552 411.468 83.096C411.959 83.64 412.54 83.912 413.212 83.912C414.289 83.912 415.047 83.4213 415.484 82.44L416.796 83C416.508 83.704 416.055 84.2587 415.436 84.664C414.828 85.0587 414.119 85.256 413.308 85.256ZM424.98 85H423.204L420.756 81.304L419.556 82.488V85H418.084V73.544H419.556V80.6L422.948 77.16H424.836V77.224L421.78 80.264L424.98 84.936V85ZM431.062 85H429.59V73.544H431.062V85ZM433.115 77.16H434.523V78.248H434.587C434.811 77.864 435.152 77.544 435.611 77.288C436.08 77.032 436.565 76.904 437.067 76.904C438.027 76.904 438.763 77.1813 439.275 77.736C439.797 78.28 440.059 79.0587 440.059 80.072V85H438.587V80.168C438.555 78.888 437.909 78.248 436.651 78.248C436.064 78.248 435.573 78.488 435.179 78.968C434.784 79.4373 434.587 80.0027 434.587 80.664V85H433.115V77.16Z" fill="#A79997"/>
<rect x="80" y="133" width="240" height="1" rx="0.5" fill="#F5EBE9"/>
<path d="M318.883 107.222C318.745 107.083 318.558 107.006 318.36 107.006C318.162 107.006 317.975 107.083 317.836 107.222L312.775 112.283L307.708 107.216C307.57 107.077 307.383 107 307.185 107C306.987 107 306.8 107.077 306.661 107.216L306.217 107.66C305.928 107.95 305.928 108.42 306.217 108.707L312.25 114.762C312.389 114.901 312.575 115 312.775 115H312.777C312.976 115 313.162 114.901 313.301 114.762L319.328 108.723C319.467 108.585 319.544 108.392 319.544 108.194C319.544 107.996 319.467 107.807 319.328 107.666L318.883 107.222Z" fill="#FF715B"/>
<path d="M80.036 118V117.118H80.306C80.642 117.118 80.912 117.034 81.116 116.866C81.32 116.686 81.524 116.32 81.728 115.768L85.67 105.148H87.722L91.61 115.948C91.766 116.404 91.946 116.716 92.15 116.884C92.366 117.04 92.63 117.118 92.942 117.118H93.23V118H87.668V117.118H88.262C88.502 117.118 88.706 117.064 88.874 116.956C89.054 116.836 89.144 116.638 89.144 116.362C89.144 116.23 89.126 116.104 89.09 115.984C89.066 115.864 89.03 115.744 88.982 115.624L88.334 113.734H83.816L83.24 115.426C83.192 115.57 83.144 115.732 83.096 115.912C83.06 116.08 83.042 116.224 83.042 116.344C83.042 116.608 83.132 116.806 83.312 116.938C83.492 117.058 83.72 117.118 83.996 117.118H84.608V118H80.036ZM84.176 112.726H87.974L86.966 109.684C86.81 109.228 86.654 108.76 86.498 108.28C86.354 107.788 86.234 107.332 86.138 106.912C86.042 107.308 85.916 107.734 85.76 108.19C85.616 108.646 85.466 109.108 85.31 109.576L84.176 112.726ZM93.6863 118V117.118H93.7403C94.1483 117.118 94.4843 117.046 94.7483 116.902C95.0243 116.746 95.1623 116.386 95.1623 115.822V110.458C95.1623 109.93 95.0303 109.594 94.7663 109.45C94.5143 109.306 94.1903 109.234 93.7943 109.234H93.7403V108.352H97.0523L97.3943 109.9H97.4843C97.7243 109.36 98.0123 108.934 98.3483 108.622C98.6963 108.31 99.2483 108.154 100.004 108.154C101.348 108.154 102.02 108.622 102.02 109.558C102.02 110.05 101.846 110.434 101.498 110.71C101.15 110.986 100.64 111.124 99.9683 111.124C99.9683 110.632 99.9023 110.266 99.7703 110.026C99.6383 109.786 99.4043 109.666 99.0683 109.666C98.7443 109.666 98.4803 109.786 98.2763 110.026C98.0723 110.254 97.9103 110.548 97.7903 110.908C97.6823 111.256 97.6043 111.61 97.5563 111.97C97.5203 112.33 97.5023 112.642 97.5023 112.906V115.912C97.5023 116.44 97.6283 116.776 97.8803 116.92C98.1443 117.052 98.4623 117.118 98.8343 117.118H99.3923V118H93.6863ZM105.592 118.18C104.8 118.18 104.134 117.94 103.594 117.46C103.054 116.98 102.784 116.248 102.784 115.264C102.784 114.304 103.12 113.59 103.792 113.122C104.464 112.654 105.478 112.396 106.834 112.348L108.328 112.294V111.268C108.328 110.86 108.298 110.5 108.238 110.188C108.178 109.864 108.052 109.612 107.86 109.432C107.68 109.252 107.392 109.162 106.996 109.162C106.444 109.162 106.078 109.348 105.898 109.72C105.718 110.08 105.628 110.542 105.628 111.106C104.932 111.106 104.41 111.022 104.062 110.854C103.714 110.674 103.54 110.368 103.54 109.936C103.54 109.504 103.696 109.156 104.008 108.892C104.332 108.628 104.758 108.436 105.286 108.316C105.826 108.196 106.42 108.136 107.068 108.136C108.268 108.136 109.168 108.37 109.768 108.838C110.368 109.294 110.668 110.086 110.668 111.214V115.84C110.668 116.332 110.746 116.668 110.902 116.848C111.07 117.028 111.358 117.118 111.766 117.118H111.82V118H108.832L108.472 116.65H108.328C108.076 116.974 107.83 117.25 107.59 117.478C107.35 117.706 107.074 117.88 106.762 118C106.45 118.12 106.06 118.18 105.592 118.18ZM106.366 116.938C106.966 116.938 107.44 116.728 107.788 116.308C108.148 115.876 108.328 115.294 108.328 114.562V113.176L107.392 113.23C106.552 113.266 105.97 113.464 105.646 113.824C105.334 114.172 105.178 114.682 105.178 115.354C105.178 116.41 105.574 116.938 106.366 116.938ZM119.325 118.18C118.629 118.18 118.059 118.036 117.615 117.748C117.183 117.448 116.835 117.064 116.571 116.596H116.427L115.995 118H112.773V117.118H112.917C113.157 117.118 113.385 117.088 113.601 117.028C113.817 116.968 113.991 116.848 114.123 116.668C114.255 116.488 114.321 116.212 114.321 115.84V106.408C114.321 105.88 114.177 105.55 113.889 105.418C113.601 105.274 113.265 105.202 112.881 105.202H112.773V104.32H116.661V107.488C116.661 107.68 116.655 107.92 116.643 108.208C116.631 108.496 116.613 108.778 116.589 109.054C116.577 109.33 116.565 109.552 116.553 109.72H116.643C116.907 109.24 117.255 108.862 117.687 108.586C118.119 108.298 118.683 108.154 119.379 108.154C120.555 108.154 121.455 108.556 122.079 109.36C122.703 110.152 123.015 111.412 123.015 113.14C123.015 114.892 122.697 116.17 122.061 116.974C121.437 117.778 120.525 118.18 119.325 118.18ZM118.749 116.902C119.409 116.902 119.883 116.578 120.171 115.93C120.471 115.282 120.621 114.346 120.621 113.122C120.621 111.886 120.471 110.962 120.171 110.35C119.883 109.726 119.403 109.414 118.731 109.414C117.927 109.414 117.381 109.72 117.093 110.332C116.805 110.944 116.661 111.88 116.661 113.14C116.661 114.352 116.805 115.282 117.093 115.93C117.393 116.578 117.945 116.902 118.749 116.902ZM129.162 118V117.118H129.72C130.02 117.118 130.284 117.058 130.512 116.938C130.74 116.806 130.854 116.494 130.854 116.002V107.236C130.854 106.708 130.74 106.378 130.512 106.246C130.296 106.102 130.032 106.03 129.72 106.03H129.162V105.148H138.792L138.882 108.406H137.748L137.658 107.578C137.61 107.158 137.484 106.822 137.28 106.57C137.088 106.306 136.776 106.174 136.344 106.174H133.32V110.782H137.604V111.79H133.32V116.974H136.866C137.31 116.974 137.634 116.842 137.838 116.578C138.042 116.302 138.174 115.966 138.234 115.57L138.36 114.742H139.494L139.368 118H129.162ZM144.347 122.32C143.003 122.32 141.995 122.098 141.323 121.654C140.651 121.222 140.315 120.592 140.315 119.764C140.315 119.104 140.531 118.6 140.963 118.252C141.395 117.904 141.965 117.688 142.673 117.604C142.385 117.484 142.115 117.298 141.863 117.046C141.611 116.794 141.485 116.458 141.485 116.038C141.485 115.666 141.611 115.336 141.863 115.048C142.127 114.76 142.481 114.49 142.925 114.238C142.409 114.034 141.983 113.692 141.647 113.212C141.323 112.732 141.161 112.15 141.161 111.466C141.161 110.422 141.455 109.606 142.043 109.018C142.643 108.43 143.555 108.136 144.779 108.136C145.211 108.136 145.613 108.196 145.985 108.316C146.357 108.424 146.663 108.556 146.903 108.712C147.167 108.424 147.443 108.19 147.731 108.01C148.019 107.818 148.349 107.722 148.721 107.722C149.129 107.722 149.429 107.824 149.621 108.028C149.825 108.22 149.927 108.448 149.927 108.712C149.927 108.976 149.843 109.21 149.675 109.414C149.507 109.606 149.207 109.702 148.775 109.702C148.775 109.498 148.715 109.33 148.595 109.198C148.475 109.066 148.319 109 148.127 109C148.007 109 147.887 109.018 147.767 109.054C147.647 109.09 147.545 109.138 147.461 109.198C147.689 109.474 147.881 109.804 148.037 110.188C148.193 110.56 148.271 110.98 148.271 111.448C148.271 112.348 147.989 113.098 147.425 113.698C146.861 114.286 145.979 114.58 144.779 114.58C144.647 114.58 144.473 114.574 144.257 114.562C144.053 114.55 143.891 114.532 143.771 114.508C143.579 114.604 143.411 114.736 143.267 114.904C143.123 115.072 143.051 115.276 143.051 115.516C143.051 115.924 143.369 116.128 144.005 116.128H146.129C147.281 116.128 148.115 116.374 148.631 116.866C149.147 117.358 149.405 118.018 149.405 118.846C149.405 119.926 148.991 120.772 148.163 121.384C147.335 122.008 146.063 122.32 144.347 122.32ZM144.725 113.59C145.241 113.59 145.595 113.41 145.787 113.05C145.991 112.678 146.093 112.138 146.093 111.43C146.093 110.71 145.991 110.152 145.787 109.756C145.595 109.348 145.235 109.144 144.707 109.144C144.203 109.144 143.849 109.354 143.645 109.774C143.441 110.182 143.339 110.74 143.339 111.448C143.339 112.132 143.441 112.66 143.645 113.032C143.861 113.404 144.221 113.59 144.725 113.59ZM144.383 121.312C145.523 121.312 146.327 121.138 146.795 120.79C147.263 120.454 147.497 119.98 147.497 119.368C147.497 118.924 147.359 118.618 147.083 118.45C146.819 118.294 146.423 118.216 145.895 118.216H143.933C143.657 118.216 143.381 118.252 143.105 118.324C142.841 118.396 142.619 118.54 142.439 118.756C142.271 118.972 142.187 119.29 142.187 119.71C142.187 120.214 142.361 120.604 142.709 120.88C143.057 121.168 143.615 121.312 144.383 121.312ZM150.624 122.32V121.348C151.452 121.348 152.124 121.204 152.64 120.916C153.156 120.64 153.57 120.25 153.882 119.746C154.194 119.254 154.446 118.684 154.638 118.036L151.362 110.134C151.218 109.786 151.05 109.564 150.858 109.468C150.678 109.36 150.444 109.306 150.156 109.306H150.102V108.352H154.908V109.234H154.854C154.518 109.234 154.254 109.294 154.062 109.414C153.87 109.522 153.774 109.708 153.774 109.972C153.774 110.068 153.792 110.182 153.828 110.314C153.864 110.434 153.906 110.548 153.954 110.656L155.214 113.914C155.382 114.358 155.52 114.766 155.628 115.138C155.748 115.51 155.826 115.828 155.862 116.092C155.898 115.804 155.976 115.498 156.096 115.174C156.216 114.838 156.312 114.574 156.384 114.382L157.572 110.854C157.62 110.722 157.662 110.578 157.698 110.422C157.734 110.254 157.752 110.116 157.752 110.008C157.752 109.732 157.644 109.534 157.428 109.414C157.224 109.294 156.924 109.234 156.528 109.234H156.456V108.352H160.398V109.234H160.326C159.99 109.234 159.726 109.33 159.534 109.522C159.342 109.702 159.15 110.056 158.958 110.584L156.24 118.036C155.928 118.912 155.628 119.626 155.34 120.178C155.064 120.742 154.74 121.18 154.368 121.492C153.996 121.804 153.534 122.02 152.982 122.14C152.43 122.26 151.728 122.32 150.876 122.32H150.624ZM160.672 122.32V121.438H160.852C161.056 121.438 161.266 121.408 161.482 121.348C161.698 121.3 161.872 121.192 162.004 121.024C162.148 120.856 162.22 120.592 162.22 120.232V110.476C162.22 109.936 162.088 109.594 161.824 109.45C161.572 109.306 161.266 109.234 160.906 109.234H160.744V108.352H164.128L164.398 109.846H164.47C164.734 109.342 165.082 108.94 165.514 108.64C165.946 108.328 166.516 108.172 167.224 108.172C168.412 108.172 169.318 108.574 169.942 109.378C170.578 110.182 170.896 111.454 170.896 113.194C170.896 114.934 170.584 116.206 169.96 117.01C169.336 117.802 168.436 118.198 167.26 118.198C166.576 118.198 166.018 118.066 165.586 117.802C165.154 117.526 164.806 117.16 164.542 116.704H164.434C164.458 116.896 164.476 117.13 164.488 117.406C164.512 117.682 164.53 117.946 164.542 118.198C164.554 118.45 164.56 118.66 164.56 118.828V120.25C164.56 120.598 164.626 120.856 164.758 121.024C164.902 121.192 165.076 121.3 165.28 121.348C165.484 121.408 165.694 121.438 165.91 121.438H166.18V122.32H160.672ZM166.63 116.938C167.302 116.938 167.782 116.626 168.07 116.002C168.37 115.366 168.52 114.43 168.52 113.194C168.52 111.97 168.37 111.04 168.07 110.404C167.782 109.768 167.302 109.45 166.63 109.45C165.826 109.45 165.28 109.768 164.992 110.404C164.704 111.028 164.56 111.958 164.56 113.194C164.56 114.43 164.704 115.366 164.992 116.002C165.28 116.626 165.826 116.938 166.63 116.938ZM176.149 118.18C175.309 118.18 174.661 117.97 174.205 117.55C173.749 117.13 173.521 116.398 173.521 115.354V109.504H172.153V108.658C172.477 108.658 172.783 108.598 173.071 108.478C173.359 108.346 173.599 108.178 173.791 107.974C174.163 107.578 174.439 106.96 174.619 106.12H175.861V108.352H178.183V109.504H175.861V115.264C175.861 116.368 176.275 116.92 177.103 116.92C177.331 116.92 177.547 116.908 177.751 116.884C177.955 116.848 178.153 116.806 178.345 116.758V117.784C178.165 117.88 177.877 117.97 177.481 118.054C177.085 118.138 176.641 118.18 176.149 118.18Z" fill="#FF715B"/>
<path d="M81.152 85V73.544H84.656C86.4053 73.544 87.808 74.072 88.864 75.128C89.9307 76.184 90.464 77.5653 90.464 79.272C90.464 80.9893 89.9307 82.376 88.864 83.432C87.808 84.4773 86.4053 85 84.656 85H81.152ZM82.624 74.952V83.592H84.656C85.9893 83.592 87.04 83.2133 87.808 82.456C88.576 81.688 88.96 80.6267 88.96 79.272C88.96 77.928 88.576 76.872 87.808 76.104C87.04 75.336 85.9893 74.952 84.656 74.952H82.624ZM95.2441 85.256C94.0921 85.256 93.1428 84.8613 92.3961 84.072C91.6495 83.2827 91.2761 82.2853 91.2761 81.08C91.2761 79.8853 91.6388 78.8933 92.3641 78.104C93.0895 77.304 94.0175 76.904 95.1481 76.904C96.3108 76.904 97.2335 77.2827 97.9161 78.04C98.6095 78.7867 98.9561 79.8373 98.9561 81.192L98.9401 81.352H92.7801C92.8015 82.12 93.0575 82.7387 93.5481 83.208C94.0388 83.6773 94.6255 83.912 95.3081 83.912C96.2468 83.912 96.9828 83.4427 97.5161 82.504L98.8281 83.144C98.4761 83.8053 97.9855 84.3227 97.3561 84.696C96.7375 85.0693 96.0335 85.256 95.2441 85.256ZM92.8921 80.136H97.3881C97.3455 79.592 97.1215 79.144 96.7161 78.792C96.3215 78.4293 95.7881 78.248 95.1161 78.248C94.5615 78.248 94.0815 78.4187 93.6761 78.76C93.2815 79.1013 93.0201 79.56 92.8921 80.136ZM106.38 82.824C106.38 83.5067 106.082 84.0827 105.484 84.552C104.887 85.0213 104.135 85.256 103.228 85.256C102.439 85.256 101.746 85.0533 101.148 84.648C100.551 84.232 100.124 83.688 99.8684 83.016L101.18 82.456C101.372 82.9253 101.65 83.2933 102.012 83.56C102.386 83.816 102.791 83.944 103.228 83.944C103.698 83.944 104.087 83.8427 104.396 83.64C104.716 83.4373 104.876 83.1973 104.876 82.92C104.876 82.4187 104.492 82.0507 103.724 81.816L102.38 81.48C100.855 81.096 100.092 80.36 100.092 79.272C100.092 78.5573 100.38 77.9867 100.956 77.56C101.543 77.1227 102.29 76.904 103.196 76.904C103.89 76.904 104.514 77.0693 105.068 77.4C105.634 77.7307 106.028 78.1733 106.252 78.728L104.94 79.272C104.791 78.9413 104.546 78.6853 104.204 78.504C103.874 78.312 103.5 78.216 103.084 78.216C102.7 78.216 102.354 78.312 102.044 78.504C101.746 78.696 101.596 78.9307 101.596 79.208C101.596 79.656 102.018 79.976 102.86 80.168L104.044 80.472C105.602 80.856 106.38 81.64 106.38 82.824ZM110.688 85.128C110.048 85.128 109.514 84.9307 109.088 84.536C108.672 84.1413 108.458 83.592 108.448 82.888V78.504H107.072V77.16H108.448V74.76H109.92V77.16H111.84V78.504H109.92V82.408C109.92 82.9307 110.021 83.288 110.224 83.48C110.426 83.6613 110.656 83.752 110.911 83.752C111.029 83.752 111.141 83.7413 111.248 83.72C111.365 83.688 111.472 83.6507 111.568 83.608L112.032 84.92C111.648 85.0587 111.2 85.128 110.688 85.128ZM115.222 74.456C115.222 74.744 115.121 74.9893 114.918 75.192C114.715 75.3947 114.47 75.496 114.182 75.496C113.894 75.496 113.649 75.3947 113.446 75.192C113.243 74.9893 113.142 74.744 113.142 74.456C113.142 74.168 113.243 73.9227 113.446 73.72C113.649 73.5173 113.894 73.416 114.182 73.416C114.47 73.416 114.715 73.5173 114.918 73.72C115.121 73.9227 115.222 74.168 115.222 74.456ZM114.918 77.16V85H113.446V77.16H114.918ZM116.834 77.16H118.242V78.248H118.306C118.53 77.864 118.871 77.544 119.33 77.288C119.799 77.032 120.284 76.904 120.786 76.904C121.746 76.904 122.482 77.1813 122.994 77.736C123.516 78.28 123.778 79.0587 123.778 80.072V85H122.306V80.168C122.274 78.888 121.628 78.248 120.37 78.248C119.783 78.248 119.292 78.488 118.898 78.968C118.503 79.4373 118.306 80.0027 118.306 80.664V85H116.834V77.16ZM126.499 82.6C126.499 82.984 126.659 83.304 126.979 83.56C127.31 83.816 127.694 83.944 128.131 83.944C128.75 83.944 129.299 83.7147 129.779 83.256C130.27 82.7973 130.515 82.2587 130.515 81.64C130.057 81.2773 129.417 81.096 128.595 81.096C127.998 81.096 127.497 81.24 127.091 81.528C126.697 81.816 126.499 82.1733 126.499 82.6ZM128.403 76.904C129.491 76.904 130.35 77.1973 130.979 77.784C131.609 78.36 131.923 79.1547 131.923 80.168V85H130.515V83.912H130.451C129.843 84.808 129.033 85.256 128.019 85.256C127.155 85.256 126.43 85 125.843 84.488C125.267 83.976 124.979 83.336 124.979 82.568C124.979 81.7573 125.283 81.112 125.891 80.632C126.51 80.152 127.331 79.912 128.355 79.912C129.23 79.912 129.95 80.072 130.515 80.392V80.056C130.515 79.544 130.313 79.112 129.907 78.76C129.502 78.3973 129.027 78.216 128.483 78.216C127.662 78.216 127.011 78.5627 126.531 79.256L125.235 78.44C125.95 77.416 127.006 76.904 128.403 76.904ZM136.531 85.128C135.891 85.128 135.358 84.9307 134.931 84.536C134.515 84.1413 134.302 83.592 134.291 82.888V78.504H132.915V77.16H134.291V74.76H135.763V77.16H137.683V78.504H135.763V82.408C135.763 82.9307 135.865 83.288 136.067 83.48C136.27 83.6613 136.499 83.752 136.755 83.752C136.873 83.752 136.985 83.7413 137.091 83.72C137.209 83.688 137.315 83.6507 137.411 83.608L137.875 84.92C137.491 85.0587 137.043 85.128 136.531 85.128ZM141.066 74.456C141.066 74.744 140.964 74.9893 140.762 75.192C140.559 75.3947 140.314 75.496 140.026 75.496C139.738 75.496 139.492 75.3947 139.29 75.192C139.087 74.9893 138.986 74.744 138.986 74.456C138.986 74.168 139.087 73.9227 139.29 73.72C139.492 73.5173 139.738 73.416 140.026 73.416C140.314 73.416 140.559 73.5173 140.762 73.72C140.964 73.9227 141.066 74.168 141.066 74.456ZM140.762 77.16V85H139.29V77.16H140.762ZM142.151 81.08C142.151 79.8747 142.53 78.8773 143.287 78.088C144.055 77.2987 145.02 76.904 146.183 76.904C147.346 76.904 148.306 77.2987 149.063 78.088C149.831 78.8773 150.215 79.8747 150.215 81.08C150.215 82.296 149.831 83.2933 149.063 84.072C148.306 84.8613 147.346 85.256 146.183 85.256C145.02 85.256 144.055 84.8613 143.287 84.072C142.53 83.2827 142.151 82.2853 142.151 81.08ZM143.623 81.08C143.623 81.9227 143.868 82.6053 144.359 83.128C144.85 83.6507 145.458 83.912 146.183 83.912C146.908 83.912 147.516 83.6507 148.007 83.128C148.498 82.6053 148.743 81.9227 148.743 81.08C148.743 80.248 148.498 79.5707 148.007 79.048C147.506 78.5147 146.898 78.248 146.183 78.248C145.468 78.248 144.86 78.5147 144.359 79.048C143.868 79.5707 143.623 80.248 143.623 81.08ZM151.396 77.16H152.804V78.248H152.868C153.092 77.864 153.433 77.544 153.892 77.288C154.361 77.032 154.847 76.904 155.348 76.904C156.308 76.904 157.044 77.1813 157.556 77.736C158.079 78.28 158.34 79.0587 158.34 80.072V85H156.868V80.168C156.836 78.888 156.191 78.248 154.932 78.248C154.345 78.248 153.855 78.488 153.46 78.968C153.065 79.4373 152.868 80.0027 152.868 80.664V85H151.396V77.16ZM165.99 82.824C165.99 83.5067 165.691 84.0827 165.094 84.552C164.496 85.0213 163.744 85.256 162.838 85.256C162.048 85.256 161.355 85.0533 160.758 84.648C160.16 84.232 159.734 83.688 159.478 83.016L160.79 82.456C160.982 82.9253 161.259 83.2933 161.622 83.56C161.995 83.816 162.4 83.944 162.838 83.944C163.307 83.944 163.696 83.8427 164.006 83.64C164.326 83.4373 164.486 83.1973 164.486 82.92C164.486 82.4187 164.102 82.0507 163.334 81.816L161.99 81.48C160.464 81.096 159.702 80.36 159.702 79.272C159.702 78.5573 159.99 77.9867 160.566 77.56C161.152 77.1227 161.899 76.904 162.806 76.904C163.499 76.904 164.123 77.0693 164.678 77.4C165.243 77.7307 165.638 78.1733 165.862 78.728L164.55 79.272C164.4 78.9413 164.155 78.6853 163.814 78.504C163.483 78.312 163.11 78.216 162.694 78.216C162.31 78.216 161.963 78.312 161.654 78.504C161.355 78.696 161.206 78.9307 161.206 79.208C161.206 79.656 161.627 79.976 162.47 80.168L163.654 80.472C165.211 80.856 165.99 81.64 165.99 82.824Z" fill="#A79997"/>
<defs>
<filter id="filter0_d" x="0" y="0" width="1255" height="224" filterUnits="userSpaceOnUse" color-interpolation-filters="sRGB">
<feFlood flood-opacity="0" result="BackgroundImageFix"/>
<feColorMatrix in="SourceAlpha" type="matrix" values="0 0 0 0 0 0 0 0 0 0 0 0 0 0 0 0 0 0 127 0"/>
<feMorphology radius="5" operator="dilate" in="SourceAlpha" result="effect1_dropShadow"/>
<feOffset dy="10"/>
<feGaussianBlur stdDeviation="15"/>
<feColorMatrix type="matrix" values="0 0 0 0 0.858333 0 0 0 0 0.784014 0 0 0 0 0.7725 0 0 0 0.2 0"/>
<feBlend mode="normal" in2="BackgroundImageFix" result="effect1_dropShadow"/>
<feBlend mode="normal" in="SourceGraphic" in2="effect1_dropShadow" result="shape"/>
</filter>
</defs>
</svg>
